<svg xmlns="http://www.w3.org/2000/svg" version="1.1" xmlns:xlink="http://www.w3.org/1999/xlink" xmlns:svgjs="http://svgjs.dev/svgjs" width="1440" height="560" preserveAspectRatio="none" viewBox="0 0 1440 560"><g mask="url(&quot;#SvgjsMask1028&quot;)" fill="none"><rect width="1440" height="560" x="0" y="0" fill="url(&quot;#SvgjsLinearGradient1029&quot;)"></rect><circle r="7.51" cx="1311.02" cy="217.34" filter="url(#SvgjsFilter1030)" fill="rgba(51, 121, 194, 0.58)"></circle><circle r="6.42" cx="758.4599999999999" cy="378.19" filter="url(#SvgjsFilter1030)" fill="rgba(51, 121, 194, 0.58)"></circle><circle r="4.745" cx="1208.0049999999999" cy="490.845" filter="url(#SvgjsFilter1030)" fill="rgba(51, 121, 194, 0.58)"></circle><circle r="6.93" cx="510.27" cy="33.870000000000005" filter="url(#SvgjsFilter1030)" fill="rgba(51, 121, 194, 0.58)"></circle><circle r="4.85" cx="1374.11" cy="181.23" filter="url(#SvgjsFilter1030)" fill="rgba(51, 121, 194, 0.58)"></circle><circle r="6.705" cx="321.175" cy="185.935" filter="url(#SvgjsFilter1030)" fill="rgba(51, 121, 194, 0.58)"></circle><circle r="8.98" cx="260.64" cy="308.65000000000003" filter="url(#SvgjsFilter1030)" fill="rgba(51, 121, 194, 0.58)"></circle><circle r="7.12" cx="1393.9199999999998" cy="187.03" filter="url(#SvgjsFilter1030)" fill="rgba(51, 121, 194, 0.58)"></circle><circle r="5.765" cx="659.625" cy="120.785" filter="url(#SvgjsFilter1030)" fill="rgba(51, 121, 194, 0.58)"></circle><circle r="6.9" cx="373.95" cy="438.45" filter="url(#SvgjsFilter1030)" fill="rgba(51, 121, 194, 0.58)"></circle><circle r="8.67" cx="23.36" cy="65.67" filter="url(#SvgjsFilter1030)" fill="rgba(51, 121, 194, 0.58)"></circle><circle r="6.36" cx="1202.5" cy="225.89000000000001" filter="url(#SvgjsFilter1030)" fill="rgba(51, 121, 194, 0.58)"></circle><circle r="4.77" cx="166.05" cy="547.96" filter="url(#SvgjsFilter1030)" fill="rgba(51, 121, 194, 0.58)"></circle><circle r="6.535" cx="1066.015" cy="79.065" filter="url(#SvgjsFilter1030)" fill="rgba(51, 121, 194, 0.58)"></circle><circle r="9.18" cx="981.8399999999999" cy="230.07" filter="url(#SvgjsFilter1030)" fill="rgba(51, 121, 194, 0.58)"></circle><circle r="8.96" cx="1327.41" cy="73.27000000000001" filter="url(#SvgjsFilter1030)" fill="rgba(51, 121, 194, 0.58)"></circle><circle r="8.26" cx="1313.74" cy="178.37" filter="url(#SvgjsFilter1030)" fill="rgba(51, 121, 194, 0.58)"></circle><circle r="8.14" cx="229.27999999999997" cy="348.8" filter="url(#SvgjsFilter1030)" fill="rgba(51, 121, 194, 0.58)"></circle><circle r="8.285" cx="728.225" cy="80.88499999999999" filter="url(#SvgjsFilter1030)" fill="rgba(51, 121, 194, 0.58)"></circle><circle r="6.645" cx="554.915" cy="527.465" filter="url(#SvgjsFilter1030)" fill="rgba(51, 121, 194, 0.58)"></circle><path d="M713.6 107.6L723.5 102.5 723.5 109.3C723.4 110 724 110.7 725 111 725.9 110.8 726.7 110.1 726.5 109.3L726.9 100.8 734.5 96.5 733.6 114.1C733.8 115 734.5 115.8 735.2 115.9 736.3 115.8 737.1 115.2 736.9 114.3L737.8 94.8 749.6 88.7 747.3 103.8 759.9 95.1 759.5 108.5 742.3 117.7C742.1 117.5 741.9 117.8 741.7 118.1 741.4 118.6 741.3 119.3 741.7 119.9 742.1 120.6 743 120.8 743.9 120.6L759.4 112.2 758.8 120.9 751.4 124.9C751 125 750.8 125.3 750.6 125.6 750.5 125.8 750.4 126.5 750.8 127.2 751.1 127.8 752.1 128 752.7 127.6L758.8 124.6 758.5 135.8C758.3 136.8 759.1 137.3 760.1 137.6 760.8 137.6 761.6 137 761.6 135.8L762.1 124.8 767.7 128.4C768.6 128.9 769.6 128.4 770 127.9 770.5 127.1 770.3 126.2 769.4 125.7L762.1 121.1 762.7 112.4 777.3 121.6C778.1 122.1 779 121.9 779.5 121.1 779.9 120.5 779.8 119.4 779 118.8L762.8 108.6 763.2 95.3 775.1 104.7 774 89.6 785.4 96.7 784.6 115.9C784.7 117.1 785.5 117.6 786.2 117.7 786.9 117.7 787.7 117.1 787.9 116.1L788.3 98.6 795.7 103.2 795.5 111.8C795.3 112.8 795.9 113.6 797.1 113.6 797.8 113.6 798.6 113 798.6 111.8L798.9 105.3 808.4 111.2C809.2 111.7 810.1 111.5 810.6 110.7S810.9 109 810.1 108.5L800.6 102.5 806.4 99.4C807.4 98.9 807.7 97.9 807.3 97.3 806.8 96.3 805.8 96 805.1 96.7L797.4 100.5 790 95.9 805.6 87.9C806.4 87.3 806.7 86.3 806.3 85.7 805.8 84.7 804.8 84.4 804 85.1L787.1 94 775.7 86.9 789.7 81.4 776.1 74.7 788 68.5 804.2 78.7C805 79.3 806.1 78.8 806.4 78.2 806.9 77.4 806.7 76.5 805.9 76L791 66.7 798.9 62.6 806.2 67.1C807 67.7 807.9 67.5 808.4 66.6 808.8 66.1 808.7 64.9 807.9 64.4L802.2 60.9 811.9 55.6C813 55.2 813.2 54.2 812.6 53.4 812.2 52.8 811.4 52.3 810.6 52.9L800.6 58 800.7 51.2C800.8 50.5 800.2 49.7 799.4 49.7 798.7 49.6 798.1 50 797.9 50.2 797.8 50.5 797.6 50.8 797.7 51.2L797.3 59.7 789.7 64 790.6 46.4C790.4 45.5 789.7 44.7 789 44.6 788.3 44.5 787.7 44.9 787.3 45.5 787.2 45.7 787.2 45.7 787.3 46.2L786.4 65.6 774.6 71.8 776.9 56.7 764.3 65.4 764.7 52 781.9 42.8C782.5 42.4 783 41.6 782.5 40.5 782.1 39.9 781.2 39.7 780.3 39.9L764.8 48.3 765.3 39.6 772.8 35.6C773.7 35.4 773.9 34.4 773.4 33.3 773.1 32.7 772.1 32.5 771.2 32.7L765.4 35.8 765.7 24.7C765.9 23.7 765.1 23.2 764.1 22.9 763.7 23 763 23.4 762.9 23.7 762.7 23.9 762.5 24.2 762.6 24.6L762.1 35.7 756.4 32.1C755.6 31.6 754.6 32.1 754.2 32.6L754.2 32.6C753.7 33.4 753.9 34.3 754.7 34.8L762.1 39.4 761.5 48.1 746.9 38.9C746 38.4 745.2 38.6 744.7 39.4S744.3 41.1 745.2 41.6L761.4 51.8 761 65.2 749.1 55.8 750.2 70.9 738.8 63.7 739.6 44.5C739.5 43.4 738.7 42.9 738 42.8 737.3 42.7 736.5 43.4 736.3 44.4L735.6 61.7 728.5 57.3 728.7 48.6C728.9 47.7 728.3 46.9 727.1 46.9 726.4 46.8 725.6 47.5 725.4 48.5L725.3 55.2 715.8 49.3C715 48.8 714.1 49 713.6 49.8S713.3 51.5 714.1 52L723.6 57.9 717.8 61.1C717.4 61.2 717.2 61.5 717 61.7 716.7 62.3 716.8 62.7 716.9 63.2 717.4 64.2 718.3 64.5 719.1 63.8L726.8 60 734.1 64.6 718.6 72.5C718.4 72.8 718.2 73.1 718 73.4 717.7 73.9 717.8 74.3 717.9 74.8 718.4 75.8 719.4 76.1 720.1 75.4L737.1 66.4 748.5 73.6 734.5 79.1 748 85.8 736.2 91.9 720 81.7C719.1 81.2 718.1 81.7 717.8 82.2 717.2 83.1 717.4 83.9 718.3 84.4L732.9 93.6 725.3 97.9 718 93.3C717.2 92.8 716.3 93 715.8 93.8S715.5 95.5 716.3 96L722 99.6 712.2 104.9C711.8 105 711.6 105.2 711.5 105.5 711.3 105.8 711.2 106.5 711.6 107.1 712 107.7 712.8 108.2 713.6 107.6ZM742.2 79.4L753.7 75 752.7 62.6 762.6 70.4 772.6 63.4 771 75.6 782 81 770.5 85.5 771.4 97.8 761.8 90.3 751.5 97 753.4 85 742.2 79.4Z" fill="rgba(51, 121, 194, 0.58)"></path><path d="M236 369.5L218.3 321.6 226.5 304.8 232.4 321C232.6 322.9 234.6 323.4 236.5 323.2 237.7 322.5 238.8 320.4 238 319.2L230.3 296.8 237.8 280 248.1 295.2 243.8 318.7C243.8 318.7 243.8 319.3 243.8 319.3 243.9 320.6 245.3 321.8 246.7 322.3 248.6 322.1 249.8 321.4 250.3 319.4L253.3 302.4 263.6 317.6 255.2 367.8C255.2 367.8 254.6 368.5 254.6 368.5 254.7 369.8 256.1 370.9 257.4 371.5 259.4 371.9 261.2 370.5 261 368.6L268.7 324.9 281.9 343 278.5 362.5C278.5 362.5 278.5 362.5 278.5 363.2 278.6 364.5 279.4 365.7 280.7 366.2 282.6 366 284.5 365.2 285 363.3L287 350.2 296.6 363.5C297.4 365.4 299.3 365.2 300.5 364.5 302.3 363.7 302.8 361.7 301.4 359.9L292.5 346.5 304.9 349.3C306.8 349.1 308.7 348.3 308.5 346.4 309 344.4 308.3 343.2 306.3 342.8L286.7 339.3 274.2 321.2 318.6 328.8C319.9 329.4 321.7 327.9 322.2 325.9 322 324.7 321.2 322.8 319.3 322.3L269.1 313.9 258.7 298.8 275.7 301.8C277.7 302.2 278.8 300.8 279.3 298.9 279.8 297.5 278.4 295.7 277 295.2L253.6 291.5 242.6 276.4 261.1 274.8 279.1 289.9C280.5 291.1 282.4 290.9 283.6 289.5 284.8 288.7 284.6 286.2 283.2 285L270 274 288.5 272.4 327.4 305.6C328.8 306.7 330.7 306.6 331.9 305.2 333.1 303.8 332.9 301.9 331.5 300.7L297.5 271.6 319.1 269.7 334.4 282.5C335.8 283.6 337.7 283.5 338.9 282.1 340 280.7 339.8 278.8 338.5 277.6L328.7 268.8 344.6 267.4C346.5 267.3 347.7 265.9 347.5 264 347.4 262 346 260.9 344.1 261L328.1 262.4 336.3 252.7C337.4 251.4 337.3 249.4 335.9 248.3S332.6 247.3 331.4 248.7L319.2 263.2 296.9 265.2 325.4 231.2C326.5 229.8 326.4 227.9 325 226.7 323.6 225.6 321.7 225.8 320.5 227.1L288 266 269.5 267.6 280.5 254.4C281.7 253 281.5 251.1 280.1 250 278.7 248.8 276.8 249 275.7 250.4L260.6 268.4 242.7 270 250.3 253.9 272.7 245.5C273.9 244.7 275 242.7 274.2 241.5 273.4 239.6 272.1 239.1 270.2 239.3L254 245.2 261.6 229.1 309.5 211.4C311.4 210.6 311.9 209.3 311.7 207.4 310.9 205.5 308.9 205 307.7 205.1L265.3 220.4 275.1 200.3 293.2 193.6C295.1 193.4 295.5 191.4 295.4 189.5 294.6 188.3 292.6 187.2 290.7 188L278.9 192.3 285.3 177.6C286.5 176.2 285.7 174.3 283.7 173.2 282.3 172.7 280.5 173.5 279.9 174.8L272.9 189.6 268.6 177.1C267.8 175.2 265.8 174.8 264.6 175.5 262.7 175.7 262.1 177 262.3 178.3 262.3 178.9 262.3 178.9 262.4 179.6L269.1 197.6 259.3 217.8 244.1 176C243.9 174.1 241.9 173.7 240 173.8 238.8 174.6 238.3 175.9 238.4 177.2 238.4 177.8 238.4 177.8 238.4 177.8L255.6 226.4 248 242.5 242.1 226.3C241.3 224.5 239.9 224 238 224.1 236.8 224.9 235.6 226.3 235.8 227.5 235.8 228.2 235.8 228.2 235.9 228.8L244.3 251.2 236.7 267.3 226.4 252.8 230.1 229.3C230.6 227.3 229.2 225.5 227.8 225 225.9 225.2 224.1 226 224.2 227.9L221.2 244.9 210.3 230.4 219.3 179.5C219.8 178.2 218.4 176.4 217.1 175.9 215.2 176 213.3 176.8 212.8 178.8L205.1 222.5 192.6 204.3 196.1 185.4C196.5 183.4 195.1 181.6 193.2 181.8 191.8 181.3 190 182.1 189.5 184.1L187.5 197.1 177.9 183.8C177.2 182.6 175.2 182.1 173.4 182.9 172.8 183.6 172.3 184.9 172.4 186.2 172.4 186.2 172.4 186.9 172.5 187.5L182 200.8 169 198.7C167.6 198.2 165.8 199.6 165.3 201 165.4 201.6 165.4 201.6 165.4 201.6 165.5 203.5 166.9 204.7 168.2 204.6L187.1 208 200.3 226.2 155.9 218.5C154 218.7 152.8 219.4 152.3 221.4 152.3 221.4 152.4 222 152.4 222 152.5 223.3 153.3 224.5 155.2 225L205.5 234.1 215.8 248.6 198.8 245.6C196.9 245.7 195 246.5 195.2 248.5 194.6 248.5 194.6 249.1 194.6 249.1 194.7 250.4 196.1 251.6 197.4 252.1L220.9 255.8 231.2 271 213.4 272.5 195.3 257.4C194 256.3 191.4 256.5 190.2 257.9 189.7 259.2 189.9 261.1 190.6 262.3L204.4 273.3 186 275 147.1 242.4C145.7 241.2 143.8 241.4 142.7 242.8 141.5 244.2 141.7 246.1 143 247.3L177 275.7 154.7 277.7 140.2 265.5C138.8 264.3 136.9 264.5 135.7 265.9S134.7 269.2 136.1 270.4L145.8 278.5 129.9 279.9C127.9 280.1 126.8 281.5 126.9 283.4 127.1 285.3 128.5 286.4 130.4 286.3L146.4 284.9 138.3 295.2C137.7 295.9 137.1 296.6 137.2 297.2 137.2 297.9 138 299.1 138.7 299.7 140.1 300.8 142 300.7 143.1 299.3L155.3 284.1 177.6 282.1 149.2 316.7C148.6 317.4 148 318.1 148.1 318.8 148.1 319.4 148.9 320.6 149.6 321.2 150.9 322.4 152.9 322.2 154 320.8L186.5 281.3 205 279.7 193.3 292.9C192.7 293.6 192.9 294.9 192.9 295.6 193 296.2 193 296.8 193.7 297.4 195.1 298.6 197.7 298.3 198.2 297L213.9 278.9 231.8 277.4 224.3 294.1 201.8 301.8C200.6 302.6 199.4 304 199.5 305.2 199.6 305.9 199.6 305.9 200.2 305.8 200.4 307.7 202.4 308.8 204.3 308L220.5 302.1 213 318.8 164.3 336C163.1 336.7 162.6 338.1 162.7 339.3 162.8 340 162.8 340 162.8 340 163.6 341.8 165 343 166.8 342.2L209.2 326.9 199.4 347 181.3 353.8C179.5 354.6 178.9 355.9 179.1 357.2 179.1 357.2 179.1 357.8 179.1 357.8 179.9 359.7 181.9 360.1 183.2 360L195.6 355.1 188.5 369.8C188.6 370.5 188.6 371.1 188.7 371.7 188.8 372.4 189.5 373.6 190.2 374.2 192.2 374.6 194.1 374.5 194.5 372.5L201.6 357.8 205.9 370.2C206.7 372.1 208.7 372.5 210 372.4 211.8 371.6 212.3 369.7 212.1 367.7L205.4 349.7 214.5 329.6 229.8 371.3C230.6 373.2 232.6 374.3 233.8 373.5 235.7 372.7 236.8 371.4 236 369.5Z" fill="rgba(51, 121, 194, 0.58)"></path><path d="M1321.8 403.7L1298.5 451.2 1284.8 456.3 1260.1 435 1262.7 420.3 1306.8 390.7C1307.2 390.3 1307.2 390.3 1307.6 389.8 1308.4 388.8 1308.8 387.4 1307.8 385.7 1306.3 384.4 1304.9 384.1 1303.2 385.1L1264.7 411.1 1268.9 388.5 1285.8 376.8C1285.8 376.8 1286.2 376.4 1286.2 376.4 1287 375.4 1287.4 374 1286.4 372.3 1285.8 370.9 1283.5 370.7 1281.8 371.7L1270.5 378.9 1273.8 362.3C1274.2 360.9 1273.1 359.2 1271.3 358.4S1267.7 359.6 1267 361.4L1264.1 377.5 1256.5 366.7C1255.4 365 1253.1 364.7 1251.4 365.8 1250.6 366.7 1249.8 368.6 1250.8 370.3L1262.5 387.2 1257.8 410.2 1231.9 371.7C1230.8 370 1228.5 369.7 1227.2 370.3 1226 371.7 1225.2 373.6 1226.2 375.3L1256.2 419 1253.2 434.1 1223.1 444.5 1211.5 434.5 1207.2 381.7C1207.1 379.9 1205.6 378.7 1203.8 378.8S1200.7 380.4 1200.9 382.2L1204.7 428.6 1186.8 413.2 1185.4 393.3C1185.2 391.5 1183.8 390.2 1181.5 390S1178.4 391.5 1178.5 393.3L1180 407.3 1166.9 396C1165.5 394.8 1163.3 395.4 1162 396.8 1160.8 398.3 1160.9 400.1 1162.3 401.3L1175.4 412.6 1161.9 413.6C1159.6 413.3 1158.3 414.8 1159 417 1159.1 418.8 1160.5 420.1 1162.4 419.9L1182.2 418.5 1200.1 434 1153.6 436.9C1151.8 437.1 1150.1 439 1150.3 440.8S1151.9 443.9 1153.7 443.7L1206.9 439.8 1218.5 449.9 1212.3 481.6 1198.1 486.3 1150.5 463C1148.7 462.2 1146.9 463.3 1145.7 464.7 1144.9 466.6 1145.9 468.3 1147.4 469.6L1189.3 489.7 1167.6 497.2 1149.2 488.1C1147.3 487.3 1145.6 488.3 1144.3 489.8 1144 491.2 1144.6 493.4 1146.5 494.2L1158.3 500.1 1142.3 505.8C1141 506.4 1140.2 508.2 1140.4 510 1141.4 511.8 1143.3 512.6 1144.6 512L1160.5 506.3 1154.6 519C1154.3 520.4 1154.9 522.6 1156.3 522.9 1157.8 524.2 1159.1 523.6 1160.3 522.2 1160.3 522.2 1160.7 521.7 1160.7 521.7L1169.8 503.3 1191.5 495.9 1171.5 537.7C1170.7 539.6 1170.8 541.4 1172.7 542.2 1174.6 542.9 1175.9 542.4 1176.7 541.4 1177.1 540.9 1177.1 540.9 1177.1 540.9L1200.3 492.5 1214.5 487.8 1239.2 509.1 1236.2 523.4 1192.2 553.9C1190.8 554.4 1190.5 556.7 1191.1 558 1192.1 559.8 1194.4 560.1 1196.2 559L1234.6 533.1 1230.4 555.6 1213.6 567.3C1211.8 568.3 1211 570.2 1212.5 571.5 1213.5 573.2 1215.8 573.5 1217.1 572.9L1228.4 564.8 1225 581.4C1225.2 583.2 1226.2 585 1228.1 585.7 1229 585.7 1230.3 585.1 1231.1 584.1 1231.5 583.7 1231.5 583.7 1231.5 582.8L1234.8 566.2 1242.9 577.4C1243.9 579.1 1245.7 579 1247 578.4 1247.5 578 1247.5 578 1247.9 577.5 1248.7 576.5 1249.1 575.1 1248.5 573.8L1236.8 557 1241.1 534.4 1267.1 572.9C1268.5 574.1 1270.4 574.9 1271.6 573.5 1272.5 573.4 1272.5 573.4 1273 572.9 1273.8 571.9 1273.7 570.1 1273.1 568.8L1242.7 524.8 1245.7 510.5 1276.2 499.6 1287.3 509.2 1291.3 562.5C1291.4 564.3 1293.3 566 1295.1 565.8S1298.6 563.8 1298.5 562L1294.6 515.5 1312 530.6 1314 550.8C1314.1 552.6 1315.6 553.9 1317.4 553.8 1319.2 553.6 1320.4 552.2 1320.3 550.4L1319.3 536.8 1332.4 548.1C1333.4 549 1335.7 549.2 1336.9 547.8 1338.2 546.3 1338 543.6 1337 542.8L1323.9 531.5 1337.5 530.5C1338.4 530.4 1339.3 530.4 1339.7 529.9 1340.5 528.9 1340.4 528 1340.4 527.1 1340.3 525.3 1338.8 524.1 1337 524.2L1316.6 525.2 1299.2 510.2 1345.7 507.2C1346.6 507.1 1347 506.7 1347.9 505.7 1348.3 505.2 1348.7 504.7 1348.7 503.8 1348.5 502 1346.6 500.3 1344.8 500.5L1291.9 503.9 1280.8 494.3 1286.7 463 1300.8 457.4 1348.8 481.1C1350.2 481.5 1352 481.3 1352.8 480.4 1353.3 479.9 1353.3 479.9 1352.8 479.5 1354 478 1353.4 475.8 1351.5 475L1309.7 455 1331.8 447 1350.1 456.1C1351.5 456.4 1352.8 455.9 1353.7 454.9 1353.7 454.9 1354.1 454.4 1354.1 454.4 1355.4 453 1354.7 450.7 1352.9 450L1340.2 444.1 1356.1 438.4C1357 438.3 1357.4 437.8 1357.8 437.4 1358.7 436.4 1359 435 1358.5 434.6 1357.9 432.4 1356.1 431.6 1354.3 431.7L1338.3 437.4 1344.3 425.6C1345 423.8 1344.4 421.5 1342.6 420.8 1341.2 420.4 1338.9 421 1338.6 422.4L1329.5 440.8 1307.8 448.3 1327.9 406.4C1328.7 404.6 1327.6 402.8 1326.2 401.6 1324.8 401.2 1322.6 401.8 1321.8 403.7ZM1258.4 442.8L1277.3 459.1 1280.2 461.7 1279.6 465.3 1275 489.3 1273.9 493.4 1270.4 494.6 1247.4 502.6 1243.8 503.8 1240.9 501.3 1222 485 1219.1 482.5 1219.8 478.8 1224.4 454.9 1225 451.2 1229 449.5 1252 441.5 1255.5 440.3 1258.4 442.8Z" fill="rgba(51, 121, 194, 0.58)"></path><path d="M1005.3 184.2L994.1 222.3 984.6 227.8 963.7 215.2 963.7 204 992.5 176.6C992.8 176.1 992.8 176.1 993 175.7 993.5 174.9 993.6 173.8 992.6 172.7 991.4 171.9 990.3 171.9 989.2 172.8L964 196.9 964.3 179.7 975.3 169C975.3 169 975.5 168.5 975.5 168.5 976 167.7 976.1 166.7 975.1 165.5 974.5 164.6 972.8 164.7 971.6 165.7L964.2 172.4 964.6 159.7C964.7 158.6 963.7 157.5 962.2 157.2S959.7 158.5 959.4 160L959.3 172.2 952.3 165.2C951.3 164.1 949.6 164.1 948.4 165.1 947.9 166 947.6 167.4 948.6 168.6L959.4 179.6 958.8 197.2 934.7 172C933.8 170.9 932 170.9 931.1 171.5 930.4 172.8 930.1 174.2 931 175.4L958.7 203.8 958.5 215.4 937.5 226.9 927.7 221 917.8 182.5C917.4 181.2 916.2 180.5 914.9 180.8S912.8 182.4 913.2 183.7L921.9 217.5 906.7 208.4 903.1 193.9C902.8 192.6 901.5 191.8 899.8 191.9S897.8 193.5 898.1 194.8L900.9 204.9 889.8 198.2C888.6 197.5 887 198.2 886.3 199.4 885.6 200.7 885.9 202 887.1 202.7L898.2 209.4 888.3 211.9C886.6 212 885.9 213.2 886.6 214.8 886.9 216.1 888.2 216.8 889.5 216.5L904 212.9 919.2 222 885.2 230.1C883.9 230.5 882.9 232.1 883.2 233.4S884.8 235.5 886.1 235.2L925 225.5 934.8 231.5 934.2 255.7 924.3 261 886.2 249.8C884.7 249.5 883.6 250.5 882.9 251.7 882.5 253.2 883.5 254.3 884.7 255.1L918.2 264.6 903.2 272.9 888.4 268.5C886.9 268.2 885.8 269.2 885 270.4 885 271.5 885.7 273 887.2 273.4L896.6 276.3 885.6 282.5C884.7 283.1 884.4 284.6 884.7 285.9 885.7 287 887.2 287.4 888.1 286.8L899.1 280.5 896.4 290.7C896.3 291.7 897 293.3 898.1 293.4 899.3 294.1 900.2 293.6 901 292.3 901 292.3 901.2 291.9 901.2 291.9L905.6 277.2 920.7 268.9 911.2 302.4C910.8 303.9 911.2 305.2 912.7 305.5 914.1 305.8 915 305.3 915.5 304.4 915.8 304 915.8 304 915.8 304L926.8 265.3 936.7 260 957.6 272.7 957.2 283.6 928.5 311.7C927.6 312.3 927.7 314 928.3 314.9 929.3 316.1 931 316 932.1 315L957.3 290.9 957 308.1 946.1 318.9C944.9 319.9 944.6 321.4 945.8 322.1 946.8 323.3 948.5 323.2 949.4 322.6L956.7 315.2 956.3 327.9C956.7 329.2 957.6 330.4 959.1 330.7 959.8 330.5 960.7 330 961.2 329.1 961.4 328.7 961.4 328.7 961.3 328.1L961.6 315.4 969 322.6C970 323.8 971.3 323.5 972.2 322.9 972.5 322.5 972.5 322.5 972.7 322.1 973.2 321.2 973.3 320.2 972.7 319.3L962 308.3 962.2 291.1 986.3 316.2C987.5 317 989 317.3 989.8 316.1 990.4 315.9 990.4 315.9 990.7 315.5 991.2 314.7 990.8 313.4 990.3 312.5L962.2 283.8 962.6 272.8 983.8 260.9 993.2 266.6 1002.9 305.5C1003.2 306.8 1004.8 307.8 1006.2 307.5S1008.5 305.5 1008.1 304.2L999.4 270.3 1014.2 279.2 1018.2 294C1018.5 295.3 1019.8 296 1021.1 295.7 1022.4 295.4 1023.1 294.2 1022.8 292.8L1020.4 283 1031.5 289.6C1032.3 290.1 1034 290.1 1034.8 288.8 1035.5 287.6 1035 285.6 1034.2 285.1L1023.1 278.4 1033 276C1033.6 275.8 1034.3 275.6 1034.5 275.2 1035 274.4 1034.9 273.8 1034.7 273.1 1034.4 271.8 1033.1 271 1031.8 271.4L1016.9 274.7 1002.1 265.8 1036.1 257.7C1036.8 257.5 1037 257.1 1037.5 256.3 1037.8 255.9 1038 255.5 1037.9 254.8 1037.5 253.5 1035.9 252.5 1034.6 252.8L995.9 262.1 986.5 256.4 986.8 232.5 996.6 226.6 1035.1 238C1036.2 238.1 1037.5 237.8 1038 237 1038.2 236.6 1038.2 236.6 1037.8 236.3 1038.5 235.1 1037.8 233.5 1036.3 233.2L1002.8 223.7 1018.2 215 1032.9 219.3C1034 219.4 1034.9 218.8 1035.4 218 1035.4 218 1035.6 217.6 1035.6 217.6 1036.3 216.4 1035.6 214.8 1034.1 214.5L1024 211.8 1035 205.5C1035.7 205.3 1036 204.9 1036.2 204.5 1036.7 203.7 1036.8 202.6 1036.4 202.4 1035.6 200.8 1034.1 200.5 1032.8 200.8L1021.8 207.1 1024.7 197.6C1025 196.1 1024.3 194.5 1022.8 194.2 1021.7 194.1 1020.2 194.9 1020.1 195.9L1015.7 210.7 1000.6 219 1010.1 185.5C1010.5 184 1009.5 182.8 1008.2 182.1 1007.2 182 1005.6 182.7 1005.3 184.2ZM963.4 221.2L979.4 230.9 981.9 232.4 981.9 235.2 981.5 253.4 981.3 256.6 978.8 257.9 962.8 266.8 960.4 268.1 957.9 266.6 941.9 257 939.4 255.5 939.4 252.7 939.8 234.4 939.8 231.6 942.5 229.9 958.5 221 960.9 219.7 963.4 221.2Z" fill="rgba(51, 121, 194, 0.58)"></path><path d="M742.6 449.3L794.9 458.5 821.8 497.5 774.6 501.3 734.4 466.6C734.4 466.6 733.8 466.3 733.8 466.3 732.7 465.8 731 466.4 729.8 467.3 728.4 468.7 728.8 471 730.5 471.9L765.8 502.1 742.9 504 727.2 490.8C727.2 490.8 726.6 490.5 726.6 490.5 725.4 490 723.7 490.6 722.6 491.5 721.2 492.9 721.5 495.2 723.3 496L733.8 505.3 716.9 506.5C715.5 506.5 713.8 508.6 713.8 510 713.6 512 715.9 513.1 717.3 513.1L734.2 511.9 724.9 522.4C723.5 523.8 723.9 526.1 725.6 526.9 727.1 528.3 729.3 528 730.2 526.3L743.3 510.5 765.9 509.2 735.7 544.5C734.3 545.9 734.6 548.2 736.4 549 737.8 550.4 740.1 550.1 740.9 548.4L775.6 508.2 822.8 504.3 802.2 547.7 751.9 565.6C750.2 566.2 749.3 568 749.9 569.7 750.5 571.4 752.3 572.2 754 571.6L798.3 555.8 788.4 576.6 769.7 583.3C768 583.9 767.2 585.6 767.8 587.3 768.4 589 770.1 589.9 771.8 589.3L784.6 584.7 776.9 600.9C775.5 602.3 776.7 604.3 778.4 605.2 780.2 606 781.9 605.4 782.7 603.6L789.8 588.6 794.4 601.4C795 603.1 796.7 603.9 798.4 603.3S801 601 800.4 599.3L793.7 580.5 803.6 559.7 819.3 604C819.9 605.7 821.7 606.6 823.4 606 825.1 605.4 825.9 603.6 825.3 601.9L807.4 551.6 827.7 508.8 854.6 547.8 845.3 598.7C845 600.7 846.5 602.1 848.2 602.9 850.2 603.1 851.6 601.7 852.5 599.9L860.7 554.3 873.7 573.2 869.8 593.3C869.5 595.3 871 596.7 872.7 597.5 874.8 597.8 876.2 596.3 876.7 595.2L879 581.4 888.7 595.2C889.6 596.3 891.9 597.4 893.3 596 894.7 594.5 895.5 592.8 894.1 591.4L884.4 577.5 898.2 579.8C900.2 580.1 901.6 578.6 902.1 577.5 902.1 576 901.5 574.3 900.3 573.8 900.3 573.8 899.7 573.5 899.7 573.5L879.6 569.6 866.6 550.7 912.3 558.9C914.3 559.2 915.7 557.7 916.3 556.6 916.3 555.1 915.7 553.4 914.5 552.9 914.5 552.9 913.9 552.6 913.9 552.6L861.6 543.4 834.8 504.4 882 500.6 922.2 535.3C923.6 536.7 925.9 536.3 926.7 534.6 928.1 533.1 927.8 530.9 926.1 530L890.8 499.8 913.7 497.9 929.4 511.1C930.9 512.5 933.1 512.1 934 510.4 935.4 508.9 935 506.7 933.3 505.8L922.8 496.6 939.7 495.4C941.1 495.4 942.8 493.3 942.8 491.9 942.7 490.5 941.8 489.4 940.7 488.8 940.1 488.5 939.5 488.3 938.7 488.6L921.8 489.8 931 479.3C932.5 477.8 932.1 475.5 930.4 474.7 930.4 474.7 929.8 474.4 929.8 474.4 928.7 473.9 926.9 474.5 925.8 475.4L912.7 491.1 889.8 493 920 457.7C921.4 456.3 921.1 454 919.4 453.2 919.4 453.2 918.8 452.9 918.8 452.9 917.6 452.3 915.9 452.9 914.8 453.8L880.1 494 832.9 497.8 853.3 455.1 903.6 437.2C905.3 436.6 906.1 434.8 905.5 433.1 904.9 431.4 903.2 430.6 901.5 431.2L857.4 446.4 867.3 425.6 886 418.9C887.7 418.3 888.6 416.6 888 414.9S885.6 412.3 883.9 412.9L871.1 417.5 878.3 402.5C879.1 400.7 878.5 399 876.7 398.2 875 397.4 873.3 398 872.5 399.7L865.3 414.7 860.8 402C860.5 401.1 860.2 400.2 859 399.7S857 399.5 856.2 399.8C854.5 400.4 853.6 402.1 854.2 403.8L860.9 422.6 851 443.4 835.2 399C834.9 398.2 834.6 397.3 833.5 396.8 832.9 396.5 831.5 396.5 830.6 396.8 828.9 397.4 828.1 399.2 828.7 400.9L846.6 451.2 826.3 494 799.4 455 808.7 402.7C808.7 401.3 808.1 399.6 806.9 399 806.9 399 806.3 398.8 806.3 398.8 804.3 398.5 802.9 400 802.4 401.1L794.1 446.8 781.2 427.9 785 407.8C785 406.3 784.4 404.6 783.2 404.1 783.2 404.1 782.7 403.8 782.7 403.8 780.7 403.6 779.3 405 778.7 406.2L776.4 420 766.7 406.1C766.1 405.9 765.8 405 765.2 404.7 764.1 404.2 762.6 404.2 761.5 405.1 760.1 406.6 759.3 408.3 760.7 409.7L770.5 423.5 756.7 421.2C754.7 421 753.3 422.4 752.7 423.6 752.5 425.6 753.9 427 755.1 427.6L775.2 431.4 788.2 450.4 742.5 442.1C740.5 441.9 739.1 443.3 738.5 444.5 739.5 447.1 740.6 449 742.6 449.3Z" fill="rgba(51, 121, 194, 0.58)"></path><path d="M1130.5 133L1169.4 124.9 1178.7 130.7 1177.4 155.1 1167.5 160.4 1129.7 147.8C1129.3 147.8 1129.3 147.8 1128.8 147.8 1127.8 147.7 1126.8 148.2 1126.3 149.6 1126.2 151 1126.6 152 1128.1 152.5L1161.1 163.4 1145.8 171.3 1131.2 166.6C1131.2 166.6 1130.7 166.6 1130.7 166.6 1129.7 166.6 1128.7 167 1128.2 168.4 1127.7 169.4 1128.5 170.8 1129.9 171.4L1139.4 174.8 1128 180.4C1127 180.9 1126.5 182.3 1126.9 183.7S1129.2 185.3 1130.7 184.9L1141.6 179.2 1138.7 188.7C1138.1 190.1 1139 191.6 1140.4 192.1 1141.4 192.2 1142.8 191.8 1143.4 190.4L1148 175.7 1163.8 167.9 1152.9 201C1152.4 202.4 1153.2 203.9 1154.2 204.4 1155.6 204.5 1157.1 204.1 1157.6 202.6L1169.7 164.8 1180.1 159.6 1200.1 172.7 1199.5 184.2 1170.2 211C1169.2 211.9 1169.1 213.3 1170 214.3S1172.3 215.4 1173.3 214.5L1199.1 190.9 1198.2 208.6 1187.1 218.6C1186.1 219.5 1186 221 1186.9 222.4S1189.2 223.5 1190.2 222.6L1197.8 215.3 1197.1 228.3C1197.1 229.7 1198.5 230.7 1199.9 230.8 1201.3 230.9 1202.3 230 1202.4 228.5L1203.1 215.6 1209.9 223.2C1210.8 224.7 1212.2 224.7 1213.3 223.3 1214.3 222.4 1214.3 221 1213.4 220L1203.4 208.9 1204.4 191.2 1227.5 217.4C1228.4 218.4 1230.3 218.5 1231.3 217.6S1232.4 215.2 1231.5 214.2L1204.7 184.4 1205.3 172.9 1227 162.1 1236.3 168.3 1244.4 207.2C1244.8 208.7 1246.2 209.2 1247.6 209.3 1249.1 208.9 1249.7 207.5 1249.7 206L1242.4 172 1256.8 181.4 1259.9 196.5C1260.3 197.9 1261.7 198.5 1263.1 198.6 1264.1 198.1 1265.1 196.7 1264.7 195.3L1262.8 185.6 1273.5 192.4C1274.5 192.9 1275.9 192.5 1276.9 191.6 1277.5 190.2 1277.1 188.7 1276.1 188.2L1265.5 181.4 1275.7 179C1276.7 178.6 1277.7 177.2 1277.3 176.2 1277.3 174.8 1276.4 174.3 1275 174.2 1275 174.2 1274.5 174.2 1274.5 174.2L1259.4 177.2 1245 167.8 1279 160.5C1280.5 160.1 1281.5 159.1 1281.1 157.7 1280.7 156.2 1279.8 155.7 1278.8 155.6 1278.3 155.6 1278.3 155.6 1278.3 155.6L1239 164.1 1229.7 157.9 1231 133.4 1240.8 128.7 1279.1 140.8C1280 141.3 1281.5 140.4 1282.1 139.5 1282.6 138.1 1281.7 136.6 1280.3 136L1247.2 125.1 1262.6 117.3 1277.2 121.9C1278.6 122.5 1280.1 122.1 1280.2 120.6 1280.7 119.2 1279.8 117.7 1278.9 117.2L1269 114.3 1280.3 108.6C1281.3 107.7 1281.9 106.3 1281.5 104.8 1281 104.3 1280.1 103.8 1279.1 103.7 1278.7 103.7 1278.7 103.7 1278.1 104.2L1266.8 109.8 1269.7 99.9C1270.3 98.5 1269.4 97.5 1268.4 96.9 1268 96.9 1268 96.9 1267.5 96.9 1266.5 96.8 1265.5 97.3 1265 98.2L1260.4 112.9 1245.1 120.7 1255.9 87.6C1256 86.2 1255.6 84.7 1254.2 84.7 1253.7 84.2 1253.7 84.2 1253.2 84.1 1252.3 84.1 1251.3 85 1250.7 85.9L1238.6 124.2 1228.8 129 1208.3 115.9 1208.9 104.9 1238.7 78.1C1239.7 77.2 1239.8 75.2 1238.9 74.2S1236 73.1 1235 74L1209.3 97.7 1210.2 80.4 1221.3 70C1222.3 69 1222.4 67.6 1221.5 66.6 1220.6 65.6 1219.1 65.5 1218.1 66.4L1210.6 73.2 1211.2 60.3C1211.3 59.3 1210.4 57.8 1209 57.8 1207.5 57.7 1206 59.1 1206 60L1205.3 73 1198.5 65.4C1198 64.9 1197.6 64.4 1197.1 64.4 1196.1 64.3 1195.6 64.8 1195.1 65.2 1194.1 66.1 1194 67.6 1194.9 68.6L1204.9 80.2 1204 97.4 1180.9 71.2C1180.4 70.7 1179.9 70.7 1179 70.6 1178.5 70.6 1178 70.6 1177.5 71 1176.5 71.9 1176.4 73.9 1177.3 74.9L1203.6 104.6 1203 115.6 1181.8 126.5 1172 120.7 1164 81.4C1163.6 80.4 1162.6 79.4 1161.7 79.3 1161.2 79.3 1161.2 79.3 1161.2 79.8 1159.7 79.7 1158.7 81.1 1159.1 82.6L1166.5 116.6 1151.6 107.2 1148.5 92.1C1148.1 91.1 1147.2 90.6 1146.2 90.5 1146.2 90.5 1145.7 90.5 1145.7 90.5 1144.3 90.4 1143.3 91.8 1143.7 93.3L1146 103.5 1135.3 96.7C1134.9 96.2 1134.4 96.2 1133.9 96.1 1132.9 96.1 1131.9 96.5 1131.9 97 1130.9 98.4 1131.3 99.8 1132.2 100.9L1142.9 107.7 1133.2 109.6C1131.7 110 1130.7 111.3 1131.1 112.8 1131.5 113.8 1132.9 114.8 1133.9 114.4L1149 111.3 1163.4 120.8 1129.3 128.1C1127.9 128.5 1127.3 129.9 1127.2 131.4 1127.7 132.3 1129.1 133.4 1130.5 133ZM1182.8 152.5L1183.8 133.8 1184 131 1186.4 129.7 1202.7 121.4 1205.7 120.1 1208 121.7 1223.4 131.6 1225.7 133.2 1225.5 136 1224.5 154.7 1224.4 157.6 1221.9 158.9 1205.6 167.2 1203.2 168.5 1200.4 166.9 1185 157 1182.7 155.4 1182.8 152.5Z" fill="rgba(51, 121, 194, 0.58)"></path><path d="M1394.7 99.6L1393.4 109.6 1387.9 105.7C1387.4 105.2 1386.4 105.3 1385.6 106 1385.3 106.8 1385.4 107.8 1385.9 108.3L1393.1 113.6 1391.8 122.8 1377.4 111.9C1376.4 111.3 1375.4 111.4 1375.1 112.2 1374.3 112.9 1374.4 113.9 1375.4 114.6L1391.3 126.5 1390.4 134.9 1372.5 142.6 1366.4 138.3 1369.2 117.2C1369.1 116.9 1368.9 116.6 1368.8 116.3 1368.7 116 1368.1 115.6 1367.7 115.4 1366.6 115.2 1365.8 115.9 1365.9 116.9L1363.4 136.1 1356.1 130.5 1357.1 120.7C1357.4 120.6 1357.3 120.3 1357.1 120 1356.9 119.4 1356.3 118.9 1355.6 118.9 1354.9 118.8 1354.2 119.5 1353.8 120.4L1353.1 128.3 1343.9 121.5C1343.3 121 1342.3 121.1 1341.6 121.8 1341.2 122.6 1341.3 123.7 1341.9 124.1L1350.5 130.5 1344.4 133.1C1343.5 133.5 1343.3 134.7 1343.5 135.2 1343.9 136.1 1344.9 136.8 1345.7 136.4L1353.7 133 1361 138.5 1344.5 145.6C1343.6 146 1343.3 146.8 1343.7 147.7 1344 148.6 1344.9 148.9 1345.8 148.6L1364 140.7 1370.5 145.2 1368.1 164.7 1361.3 167.7 1344.9 155.5C1344.3 154.8 1343 155 1342.6 155.8 1341.9 156.5 1342.3 157.4 1342.9 158.1L1357.8 169.2 1349.3 172.8 1342 167.3C1341.4 166.8 1340.1 167 1339.7 167.6S1339.4 169.4 1340.1 170.2L1345.7 174.4 1335.4 178.8C1334.6 179.2 1334.4 180.3 1334.7 181.2 1335 181.8 1336 182.4 1336.8 182L1347.1 177.6 1346.4 184.9C1346.4 185.6 1346.8 186.5 1347.9 186.7 1348.6 186.7 1349.7 185.9 1349.7 185.2L1350.7 176.1 1359.2 172.4 1357 190.8C1357.1 191.8 1357.5 192.7 1358.6 192.9 1359.3 192.9 1360.3 192.1 1360.4 191.4L1362.7 170.9 1369.5 168 1385.3 179.6 1384.1 187.4 1365.9 195.3C1365 195.7 1364.7 196.5 1365.1 197.4 1365.4 198.3 1366.4 198.9 1367.3 198.5L1383.8 191.4 1382.8 200.6 1374.9 204C1374 204.4 1373.7 205.2 1374 206.1 1374.4 207 1375.3 207.3 1376.1 206.9L1382.3 204.3 1381 214.9C1380.9 215.6 1381.7 216.7 1382.5 216.7 1383.5 216.6 1384.3 216.3 1384.3 215.3L1385.8 204.2 1391.9 208.8C1392.8 209.1 1393.8 209.1 1394.2 208.5 1394.7 208 1394.7 207.3 1394.5 206.7 1394.5 206.7 1394.4 206.4 1393.9 206.2L1386.1 200.2 1387.1 191 1402.8 202.4C1403.4 203.2 1404.4 203.1 1405.1 202.1 1405.2 201.7 1405.4 201.3 1405.2 200.7 1405 200.4 1404.9 200.1 1404.8 199.8L1387.6 187.3 1388.6 180 1406.5 172.2 1413.2 177.3 1410.9 197.1C1410.7 198.3 1411.4 199 1412.4 198.9 1413.3 199.3 1414 198.6 1414.2 197.5L1416.3 179.5 1423.8 185 1422.7 193.8C1422.7 194.5 1423.4 195.3 1424.2 195.6 1425.2 195.5 1426.1 195.1 1426 194.1L1427 187.4 1435.1 193.3C1435.8 194.1 1436.7 193.7 1437.4 193.1 1437.6 192.6 1437.6 191.9 1437.4 191.3 1437.4 191.3 1437.2 191 1437.1 190.7L1428.4 184.4 1435.8 181.2C1436.4 181 1437 180 1436.6 179.1 1436.2 178.2 1435.1 178 1434.5 178.3L1425.4 182.2 1417.8 176.7 1435.8 169C1436.6 168.6 1436.9 167.5 1436.5 166.6S1435.3 165.4 1434.4 165.8L1414.7 174.3 1408.5 169.6 1410.9 150.1 1418.5 146.8 1435 159.2C1435.9 159.6 1436.9 159.5 1437.6 158.8 1437.8 158.4 1437.8 157.7 1437.6 157.1 1437.5 156.8 1437.3 156.5 1436.9 156.3L1422.1 145.3 1430.6 141.6 1438.2 147.1C1438.7 147.5 1439.7 147.5 1440.5 146.8 1440.8 145.9 1440.7 144.9 1440.2 144.5L1434.1 140.1 1443.5 136.1C1444.1 135.8 1444.6 134.5 1444.4 134 1444 133.1 1442.7 132.6 1442.1 132.8L1432.7 136.9 1433.8 129.8C1433.7 129.5 1433.6 129.2 1433.5 128.9 1433.2 128.3 1432.7 127.8 1432.2 127.7 1431.2 127.8 1430.5 128.4 1430.1 129.3L1429.2 138.4 1420.7 142.1 1422.9 123.7C1423.1 122.6 1422.4 121.8 1421.7 121.8 1420.5 121.6 1419.8 122.2 1419.5 123.1L1417.1 143.6 1409.5 146.9 1393.7 135.2 1394.6 127.5 1414.2 119.1C1415.1 118.7 1415.5 117.8 1415.1 117 1414.7 116.1 1413.9 115.7 1413 116.1L1395 123.8 1396.3 114.6 1405.4 110.7C1406 110.4 1406.5 109.2 1406.1 108.3 1405.7 107.4 1404.6 107.2 1404 107.4L1396.7 110.6 1398 99.9C1397.9 99.6 1397.9 99.6 1397.7 99.3 1397.5 98.8 1396.9 98.3 1396.5 98.1 1395.5 98.2 1394.7 98.9 1394.7 99.6ZM1406 148.4L1407.6 149.8 1407.4 151.6 1405.5 167.4 1405.2 169.3 1403.5 170 1389.1 176.3 1387.3 177 1385.8 175.9 1373 166.5 1371.5 165.4 1371.6 163.2 1373.6 147.7 1373.7 145.6 1375.5 144.8 1389.9 138.6 1391.7 137.8 1393.3 139.2 1406 148.4Z" fill="rgba(51, 121, 194, 0.58)"></path><path d="M620.4 91.7L597.7 103.4 588.9 100.4 596.6 96.4C597.5 96.2 597.6 95.2 597.4 94.3 597 93.7 595.9 93.3 595.4 93.8L584.7 99 575.9 96.3 582.8 90.2 594.8 90.9C594.8 90.9 595.1 90.9 595.1 90.9 595.7 90.7 596.2 90 596.4 89.3 596.2 88.4 595.7 87.8 594.7 87.7L586.1 87.2 593 81.2 618.4 82.3C618.4 82.3 618.8 82.5 618.8 82.5 619.4 82.4 619.9 81.6 620.1 80.9 620.2 79.9 619.4 79.1 618.4 79.3L596.3 78.2 604.5 70.5 614.4 71C614.4 71 614.4 71 614.7 71 615.3 70.8 615.9 70.4 616.1 69.7 615.9 68.8 615.3 67.9 614.3 67.8L607.7 67.6 613.8 62C614.6 61.5 614.4 60.6 614 60 613.5 59.1 612.5 59 611.7 59.8L605.6 65.1 606.2 58.7C606 57.8 605.5 56.9 604.5 57.1 603.5 57 603 57.4 602.9 58.5L602.4 68.4 594.1 75.7 595.2 53.2C595.4 52.5 594.5 51.7 593.5 51.6 592.9 51.7 592 52.3 591.9 53.3L590.8 78.7 583.9 84.8 584.4 76.1C584.5 75.1 583.7 74.7 582.7 74.5 582 74.4 581.2 75.2 581.1 75.9L580.7 87.7 573.8 94.1 571.9 85 578.3 75.2C578.8 74.4 578.6 73.5 577.8 73 577.4 72.4 576.1 72.7 575.6 73.4L571 80.7 569 71.6 583.1 50.2C583.6 49.5 583.4 48.5 582.6 48.1 581.9 47.6 580.9 47.8 580.4 48.5L568.1 67.2 565.8 56.6 571.2 48.2C571.7 47.4 571.5 46.5 570.7 46 570 45.5 569 45.7 568.5 46.5L564.8 51.9 563.1 44.1C562.9 43.1 562.2 42.6 561.2 42.8 560.3 43 559.8 43.8 560 44.7L561.7 52.5 556.3 49.1C555.6 48.6 554.6 48.8 554.2 49.6S553.9 51.3 554.6 51.8L562.6 56.9 564.9 67.9 546.3 55.8C545.6 55.3 544.6 55.5 544.1 56.3 543.6 57.1 543.8 58 544.6 58.5L565.9 72.3 567.8 81.3 560.6 76.7C559.8 76.2 558.9 76.4 558.4 77.1 557.9 77.9 558.1 78.8 558.9 79.3L568.8 85.7 570.6 94.5 562.2 91.7 556.6 81.1C556.2 80.5 555.1 80.1 554.6 80.6 553.7 81.1 553.5 81.8 553.7 82.7L557.7 90.4 549.2 87.6 537.5 64.9C537 64 536.3 63.9 535.3 64.1 534.5 64.6 534.3 65.6 534.5 66.2L544.7 86.3 534.1 82.7 529.6 74.1C529.4 73.2 528.4 73.1 527.5 73.3 526.9 73.7 526.5 74.8 527 75.7L529.9 81.3 522.2 79C521.4 78.5 520.5 79 520.1 80.1 519.9 80.8 520.4 81.7 521.1 81.8L528.9 84.4 523 87.3C522.1 87.8 522 88.9 522.4 89.4 522.6 90.3 523.3 90.5 523.9 90.4 524.3 90.3 524.3 90.3 524.6 90.3L533.1 85.8 543.7 89.4 523.9 99.6C523 99.8 522.9 100.8 523.1 101.7 523.5 102.3 524.2 102.4 524.9 102.3 525.2 102.2 525.2 102.2 525.2 102.2L548.2 90.8 556.7 93.5 549 97.5C548.2 98 548 98.7 548.2 99.6 548.6 100.2 549.4 100.7 550 100.5 550.3 100.5 550.3 100.5 550.6 100.4L561.2 94.9 569.7 97.6 563.1 103.6 551.2 103.2C550.2 103.1 549.4 103.9 549.2 104.6 549.4 105.6 550 106.4 550.9 106.2L559.5 106.7 553 113 527.2 111.6C526.5 111.4 525.7 112.3 525.5 113 525.7 113.9 526.2 114.8 527.2 114.9L549.4 116 541.2 123.4 531.5 122.8C530.5 122.7 529.7 123.5 529.9 124.5 529.8 125.1 530.3 126 531.3 126.1L537.9 126.4 531.9 131.9C531.3 132.3 531.2 133.4 531.7 134.2 532.1 134.5 532.8 134.6 533.4 134.5 533.4 134.5 533.7 134.4 534 134.4L540 128.8 539.8 135.4C539.6 136.1 540.5 136.9 541.1 137.1 541.5 137 541.5 137 541.5 137 542.4 136.8 542.9 136.1 542.8 135.5L543.3 125.8 551.5 118.2 550.4 140.7C550.6 141.6 551.1 142.2 552.1 142.3 552.1 142.3 552.4 142.2 552.4 142.2 553 142.1 553.6 141.6 553.7 140.6L555.1 115.1 561.7 109.2 561.2 117.8C561.4 118.7 561.9 119.6 562.9 119.4 562.9 119.7 563.3 119.6 563.3 119.6 563.9 119.5 564.4 118.7 564.6 118L565 106.2 571.8 100.1 573.7 108.9 567.3 118.7C566.8 119.5 567.1 120.8 567.9 121.2 568.6 121.4 569.5 121.2 570 120.8L574.7 113.2 576.6 122.3 562.8 143.6C562.3 144.4 562.5 145.3 563.3 145.8 564.1 146.3 565 146.1 565.5 145.3L577.5 126.7 579.9 137.7 574.7 145.6C574.2 146.4 574.4 147.3 575.2 147.8S576.9 148.1 577.4 147.4L580.8 142 582.5 149.9C582.7 150.8 583.5 151.3 584.4 151.1 585.3 150.9 585.8 150.1 585.6 149.2L583.9 141.4 589.6 144.7C590 145 590.3 145.2 590.6 145.2 591 145.1 591.5 144.7 591.8 144.3 592.3 143.5 592.1 142.6 591.3 142.1L583 137 580.7 126 599.6 138C600 138.3 600.4 138.5 600.7 138.4 601 138.4 601.5 137.9 601.8 137.5 602.3 136.8 602.1 135.9 601.3 135.4L579.7 121.7 577.8 112.6 585.1 117.6C585.4 117.8 586.1 117.7 586.4 117.6 586.7 117.5 587 117.5 587.3 117.1 587.8 116.3 587.5 115.1 586.8 114.9L576.8 108.2 575 99.4 583.7 102.1 589 112.8C589.4 113.4 590.2 113.9 590.8 113.7 591.1 113.7 591.1 113.7 591 113.3 592 113.1 592.4 112.1 591.9 111.2L588 103.5 596.7 106.2 608.2 129.3C608.6 129.9 609.3 130 610 129.9 610.3 129.8 610.3 129.8 610.3 129.8 611.1 129.3 611.6 128.6 611.1 127.7L600.9 107.6 611.5 111.2 616 119.8C616.5 120.7 617.2 120.8 617.8 120.7 617.8 120.7 618.1 120.6 618.1 120.6 619 120.1 619.1 119.1 619 118.5L615.8 112.6 623.5 115.2C623.8 115.2 624.1 115.1 624.5 115 624.8 115 625.3 114.5 625.6 114.1 625.7 113.1 625.5 112.2 624.5 112.1L616.7 109.5 622.6 106.6C623.5 106.1 623.6 105.1 623.5 104.4 623 103.6 622 103.4 621 103.6L612.5 108.1 602 104.8 621.7 94.7C622.6 94.2 623 93.1 622.6 92.5 622.1 91.6 621.3 91.2 620.4 91.7Z" fill="rgba(51, 121, 194, 0.58)"></path><path d="M433 445.5L430.1 490.1 417.5 500.6 418.6 485.5C419.1 483.9 417.7 482.9 416.1 482.3 414.9 482.5 413.3 483.7 413.5 484.9L411.6 505.6 399.7 516.3 396.8 500.5 408.7 483.3C408.7 483.3 408.9 482.8 408.9 482.8 409.2 481.7 408.5 480.3 407.7 479.4 406.1 478.8 404.8 479 403.8 480.4L395.3 492.9 392.5 477.1 417.1 440C417.1 440 417.8 439.7 417.8 439.7 418.2 438.6 417.5 437.2 416.6 436.3 415.2 435.2 413.3 435.7 412.7 437.3L391 469.5 386.9 450.3 396.6 435.9C396.6 435.9 396.6 435.9 396.8 435.4 397.2 434.3 397 433.1 396.1 432.2 394.5 431.6 392.8 431.6 391.7 433L385.4 442.7 382.5 428.7C382.5 426.9 381 426.3 379.7 426.5 377.9 426.5 376.9 427.9 377.4 429.8L379.7 443.7 370.8 437C369.2 436.5 367.4 436.5 366.8 438.1 365.8 439.5 365.9 440.7 367.3 441.8L381.8 451.5 385.3 470.5 352.6 448.5C351.7 447.6 349.7 448.1 348.7 449.6 348.3 450.6 348.3 452.4 349.7 453.5L386.8 478.1 389.6 493.9 377.1 485.4C375.7 484.4 374.3 485.1 373.2 486.5 372.3 487.3 372.9 489.3 373.7 490.2L391.1 501.5 394.5 517.5 379.2 512.2 370.2 493.7C369.5 492.3 367.9 491.7 366.4 492.4 365.2 492.6 364.5 494.7 365.2 496.1L371.8 509.7 356.4 504.4 337.2 464C336.5 462.5 334.9 462 333.5 462.7 332 463.4 331.5 465 332.2 466.4L349 501.8 331 495.6 323.4 479.9C322.7 478.5 321.1 478 319.7 478.6 318.2 479.3 317.7 480.9 318.4 482.3L323.1 492.8 309.8 488.3C308.2 487.7 306.8 488.4 306.3 490 305.7 491.6 306.4 493 308 493.6L321.2 498.1 311.3 503C309.8 503.7 309.3 505.3 310 506.7S312.3 508.7 313.7 508L328.6 500.7 347.2 507.1 312.3 524.1C310.9 524.8 310.3 526.4 311 527.8 311.7 529.2 313.3 529.8 314.7 529.1L354.6 509.7 369.9 514.9 356.4 521.5C355 522.2 354.4 523.8 355.1 525.2 355.8 526.7 357.4 527.2 358.8 526.5L377.3 517.5 392.2 522.6 380.4 532.8 359.5 531.5C358.2 531.6 356.6 532.9 356.8 534.1 356.8 535.9 357.7 536.8 359.2 537.3L374.3 538.4 362.5 548.5 317.9 545.6C316.1 545.5 315.2 546.4 314.7 548 314.7 549.8 316.1 550.9 317.1 551.2L356.4 554.1 341.4 566.7 324.6 565.7C323 565.1 321.9 566.5 321.4 568.1 321.5 569.3 322.8 570.9 324.5 571L335.5 571.8 325.1 581.2C323.7 581.9 323.7 583.7 324.9 585.3 325.8 586.2 327.6 586.2 328.5 585.3L339.4 576.1 338.3 587.6C338.3 589.3 339.7 590.4 341 590.3 342.6 590.8 343.5 589.9 343.8 588.9 344 588.3 344 588.3 344.2 587.8L345.3 571 360.3 558.4 357.6 597.2C357 598.8 358.4 599.8 360 600.4 361.2 600.2 362.1 599.3 362.5 598.3 362.7 597.8 362.7 597.8 362.7 597.8L366.3 552.8 378.1 542.7 377.1 557.7C377.1 559.5 378 560.4 379.5 560.9 380.8 560.8 382.2 560.1 382.6 559 382.8 558.5 382.8 558.5 382.9 557.9L384.2 537.1 396 526.9 399 542.2 387.7 559.6C386.6 561 387.1 562.9 388 563.8 389.6 564.4 391.4 564.4 391.9 562.8L400.4 550.3 403.9 565.8 378.6 603.2C377.7 604.1 378.2 606.1 379.1 607 380.6 607.5 382.4 607.5 383.5 606.1L405.3 573.9 408.8 592.9 399.2 606.8C398.2 608.2 398.7 610.2 400.3 610.7 401.1 611.6 402.9 611.6 404 610.2L410.3 600.6 413.2 614.6C413.3 615.8 414.7 616.9 416.5 616.9 417.2 616.6 418.1 615.7 418.5 614.6 418.5 614.6 418.6 614.1 418.8 613.6L416 599.6 425.6 605.9C426.5 606.8 428.5 606.2 429.4 605.4 429.5 604.8 429.5 604.8 429.5 604.8 430.1 603.2 429.4 601.8 428.3 601.5L414.5 591.9 410.4 572.8 443.1 594.7C444.7 595.3 445.9 595.1 447 593.7 447 593.7 447.2 593.2 447.2 593.2 447.6 592.1 447.4 590.9 446 589.8L409.1 564.6 406 549.3 418.5 557.8C420.1 558.3 421.9 558.4 422.4 556.8 423 556.9 423.2 556.4 423.2 556.4 423.5 555.4 422.8 553.9 421.9 553L404.5 541.7 401.7 525.9 416.5 531 425.5 549.5C426.2 551 428.3 551.7 429.8 551 430.7 550.1 431.2 548.5 431 547.3L423.9 533.6 439.3 538.9 458.7 578.8C459.4 580.2 461 580.7 462.4 580 463.8 579.3 464.4 577.8 463.7 576.3L446.7 541.4 465.2 547.8 472.5 562.8C473.2 564.2 474.8 564.8 476.2 564.1S478.2 561.8 477.5 560.4L472.6 550.4 485.9 555C487.4 555.5 488.9 554.8 489.4 553.2 490 551.6 489.3 550.2 487.7 549.7L474.5 545.1 484.6 539.7C485.3 539.4 486 539 486.2 538.5 486.4 538 486.2 536.7 485.9 536 485.2 534.6 483.6 534 482.2 534.7L467 542.5 448.5 536.1 483.6 518.6C484.3 518.3 485 517.9 485.2 517.4 485.4 516.9 485.2 515.6 484.9 514.9 484.2 513.5 482.6 513 481.2 513.6L441.1 533.6 425.8 528.3 439.8 521.9C440.5 521.5 440.9 520.5 441.1 519.9 441.3 519.4 441.4 518.9 441.1 518.2 440.4 516.8 438.3 516 437.4 516.9L418.3 525.7 403.5 520.6 415.5 509.9 436.2 511.8C437.4 511.6 438.9 510.9 439.2 509.8 439.4 509.3 439.4 509.3 438.9 509.1 439.4 507.5 438.2 505.9 436.4 505.9L421.4 504.9 433.4 494.2 478.3 497.9C479.6 497.7 480.5 496.8 480.8 495.8 481 495.2 481 495.2 481 495.2 481 493.5 480.3 492 478.6 492L439.3 489.1 454.3 476.5 471.1 477.6C472.9 477.6 473.8 476.7 474.1 475.7 474.1 475.7 474.3 475.1 474.3 475.1 474.3 473.4 472.9 472.3 471.9 471.9L460.2 471.4 471.1 462.2C471.3 461.6 471.4 461.1 471.6 460.6 471.8 460.1 471.6 458.8 471.3 458.1 469.9 457 468.3 456.5 467.2 457.9L456.3 467.2 457.3 455.7C457.4 453.9 455.9 452.8 454.9 452.4 453.1 452.4 452 453.8 451.5 455.4L450.4 472.2 435.9 485 438.7 446.3C438.7 444.5 437.5 442.9 436.2 443 434.4 443 433 443.7 433 445.5Z" fill="rgba(51, 121, 194, 0.58)"></path></g><defs><mask id="SvgjsMask1028"><rect width="1440" height="560" fill="#ffffff"></rect></mask><linearGradient x1="15.28%" y1="-39.29%" x2="84.72%" y2="139.29%" gradientUnits="userSpaceOnUse" id="SvgjsLinearGradient1029"><stop stop-color="#0e2a47" offset="0"></stop><stop stop-color="#00459e" offset="1"></stop></linearGradient><filter id="SvgjsFilter1030"><feGaussianBlur stdDeviation="1"></feGaussianBlur></filter></defs></svg>